<svg height="25px" viewBox="0 -96 512 512" width="25px" xmlns="http://www.w3.org/2000/svg"><path d="m489.5 246h-2.058594c5.347656-7.355469 7.785156-15.71875 6.878906-24.390625-2.035156-19.480469-21.039062-38.9375-38.339843-52.863281.046875-.109375.097656-.234375.144531-.34375 2.234375-5.480469 1.019531-11.804688-3.109375-16.109375-3.296875-3.433594-6.992187-6.765625-10.972656-9.902344-3.253907-2.5625-7.96875-2.003906-10.53125 1.25-2.566407 3.253906-2.007813 7.96875 1.246093 10.53125 3.445313 2.714844 6.621094 5.582031 9.476563 8.566406-.605469 1.488281-1.371094 3.324219-2.269531 5.4375-6.847656 16.019531-24.640625 54.855469-45.292969 77.824219h-24.730469c3.59375-8.878906 7.621094-24.066406 12.144532-51.09375 3.804687-22.730469 6.734374-46.699219 8.527343-62.851562 4.816407 1.660156 10.410157 3.816406 16.273438 6.539062 1.023437.472656 2.09375.695312 3.148437.695312 2.832032 0 5.542969-1.609374 6.8125-4.347656 1.742188-3.757812.105469-8.214844-3.652344-9.957031-7.878906-3.65625-15.304687-6.375-21.230468-8.296875-.464844-5.25-3.671875-9.96875-8.566406-12.253906-10.632813-4.988282-33.910157-13.359375-70.410157-13.429688-12.253906.023438-23.011719.984375-32.304687 2.441406v-23.617187c0-19.574219-15.925782-35.5-35.5-35.5h-34.683594v-26.828125c0-4.140625-3.355469-7.5-7.5-7.5h-106.5c-4.144531 0-7.5 3.359375-7.5 7.5s3.355469 7.5 7.5 7.5h99v119.316406c-7.929688 4.957032-15.703125 10.894532-22.523438 17.984375-4.121093 4.300781-5.335937 10.621094-3.101562 16.101563.046875.109375.097656.234375.144531.347656-15.648437 12.589844-32.671875 29.703125-37.292969 47.25h-91.726562c-2.480469 0-4.5-2.019531-4.5-4.5v-196.5h27.5c4.144531 0 7.5-3.359375 7.5-7.5s-3.355469-7.5-7.5-7.5h-35c-4.144531 0-7.5 3.359375-7.5 7.5v204c0 9.554688 6.914062 17.511719 16 19.167969v15.332031h-15c-12.40625 0-22.5 10.09375-22.5 22.5s10.09375 22.5 22.5 22.5h7v2.5c0 14.0625 11.4375 25.5 25.5 25.5h402c14.0625 0 25.5-11.4375 25.5-25.5v-2.5h7c12.40625 0 22.5-10.09375 22.5-22.5s-10.09375-22.5-22.5-22.5zm-39.703125-62.921875c17.8125 14.949219 28.476563 29.300781 29.605469 40.089844.867187 8.324219-4.113282 16.5625-13.710938 22.832031h-51.632812c14.9375-19.746094 27.558594-44.78125 35.738281-62.921875zm-72.769531-65.066406-.347656 3.339843c-1.542969 14.757813-4.800782 43.558594-9.308594 70.589844-7.433594 44.582032-13.15625 52.804688-14.308594 54.058594h-80.128906c-1.171875-1.285156-6.886719-9.5625-14.304688-54.058594-4.507812-27.03125-7.769531-55.832031-9.3125-70.59375l-.058594-.578125c0-.015625-.003906-.035156-.003906-.050781l-.28125-2.707031c7.652344-3.589844 29.210938-11.941407 64.011719-12.011719 34.832031.066406 56.386719 8.421875 64.042969 12.011719zm-166.347656-68.683594h34.5c11.304687 0 20.5 9.199219 20.5 20.5v26.628906c-5.878907 1.46875-10.875 3.070313-15 4.605469v-27.234375c0-5.234375-4.261719-9.5-9.5-9.5h-30.5zm25 30v31.746094c-.539063 1.03125-.957032 2.121093-1.242188 3.253906h-23.9375v-35zm-29.242188 65.871094c.261719-.132813.519531-.277344.761719-.445313.027343-.019531.058593-.035156.089843-.054687 9.886719-5.71875 19.894532-9.824219 28.097657-12.648438 1.792969 16.152344 4.722656 40.125 8.527343 62.855469 4.527344 27.027344 8.550782 42.214844 12.144532 51.09375h-24.710938c-20.710937-23.007812-38.480468-61.8125-45.308594-77.816406-.902343-2.121094-1.667968-3.957032-2.246093-5.492188 6.746093-7.011718 14.636719-12.78125 22.644531-17.492187zm-30.238281 37.882812c8.167969 18.125 20.78125 43.152344 35.75 62.917969h-52.027344c-9.027344-6.035156-13.882813-13.984375-13.382813-22.085938.011719-.238281.03125-.476562.058594-.746093 1.128906-10.789063 11.792969-25.136719 29.601563-40.085938zm-123.699219 47.917969h79.511719c.925781 5.285156 3.117187 10.347656 6.433593 15h-85.945312zm437 45h-393.375c-4.144531 0-7.5 3.359375-7.5 7.5s3.355469 7.5 7.5 7.5h371.375v2.5c0 5.789062-4.710938 10.5-10.5 10.5h-402c-5.789062 0-10.5-4.710938-10.5-10.5v-2.5h19.5c4.144531 0 7.5-3.359375 7.5-7.5s-3.355469-7.5-7.5-7.5h-41.5c-4.136719 0-7.5-3.363281-7.5-7.5s3.363281-7.5 7.5-7.5h467c4.136719 0 7.5 3.363281 7.5 7.5s-3.363281 7.5-7.5 7.5zm0 0"/></svg>