<?xml version="1.0" ?><svg id="Layer_1" style="enable-background:new -55 1.359 336.796 449.83;" version="1.1" viewBox="-55 1.359 336.796 449.83" xml:space="preserve" xmlns="http://www.w3.org/2000/svg" xmlns:xlink="http://www.w3.org/1999/xlink"><g id="Coffee_bag"><path d="M52.564,14.538v66.771L33.448,95.205v288.334c0,0,16.693,16.693,15.814,53.593l-76.148-3.514   l-15.224-66.187l7.907-281.146l7.317-71.748h79.45V14.538z" style="fill:#FDBB03;"/><path d="M281.501,122.815l-6.733-32.404V15.416c0-7.763-6.295-14.057-14.058-14.057H-33.914   c-7.763,0-14.057,6.294-14.057,14.057v74.995l-6.733,32.404c-0.196,0.94-0.296,1.901-0.296,2.862v247.319   c0,1.184,0.151,2.361,0.446,3.511l6.582,25.51v35.116c0,7.763,6.294,14.057,14.057,14.057H260.71   c7.763,0,14.057-6.294,14.057-14.057v-35.116l6.582-25.51c0.295-1.15,0.446-2.327,0.446-3.511V125.677   C281.796,124.716,281.697,123.755,281.501,122.815z M246.653,29.473v38.022l-1.253-0.776c-4.537-2.804-10.261-2.804-14.798,0   l-15.303,9.476l-15.272-9.469c-4.537-2.814-10.279-2.814-14.816,0l-15.258,9.462l-15.255-9.462   c-4.54-2.818-10.286-2.811-14.826,0.003l-15.224,9.455l-15.252-9.458c-4.537-2.814-10.282-2.814-14.819,0l-15.252,9.462   L64.077,66.73c-4.537-2.821-10.282-2.818-14.826,0l-15.227,9.455L18.78,66.73c-4.54-2.821-10.286-2.814-14.826,0l-15.224,9.455   l-8.587-5.33V29.473H246.653z M253.682,371.211l-6.582,25.51c-0.295,1.146-0.446,2.327-0.446,3.511v22.843H-19.857v-22.843   c0-1.184-0.151-2.365-0.446-3.511l-6.582-25.51V127.119l5.069-24.391l3.137,1.946c4.54,2.821,10.289,2.818,14.829,0l15.224-9.455   l15.245,9.455c4.537,2.821,10.282,2.818,14.826,0l15.227-9.455l15.245,9.455c4.537,2.821,10.282,2.818,14.819,0.003l15.251-9.462   l15.255,9.462c4.54,2.818,10.286,2.814,14.826-0.003l15.224-9.455l15.252,9.458c4.537,2.814,10.282,2.814,14.819,0l15.258-9.462   l15.265,9.462c4.53,2.811,10.261,2.814,14.805,0.007l15.31-9.479l10.385,6.428l5.295,25.486L253.682,371.211L253.682,371.211z" style="fill:#352517;"/><path d="M127.49,173.93c-0.072,0-0.148,0-0.223,0c-17.259,0.069-35.256,8.298-49.368,22.572   c-24.919,25.197-29.288,61.524-9.74,80.983c7.993,7.952,18.759,12.152,31.148,12.152c0.072,0,0.148,0,0.223-0.003   c17.259-0.069,35.256-8.295,49.368-22.568c24.919-25.201,29.288-61.528,9.74-80.983C150.645,178.131,139.879,173.93,127.49,173.93z    M92.889,211.328c10.056-10.169,22.939-16.264,34.463-16.312c0.045,0,0.086,0,0.13,0c2.32,0,5.102,0.268,7.923,1.122   c-1.138,5.34-4.901,14.723-17.316,22.486c-4.908,3.068-9.177,5.433-12.945,7.519c-12.46,6.908-20.743,12.074-27.709,24.888   C75.352,239.103,80.906,223.446,92.889,211.328z M133.907,252.24c-10.056,10.165-22.939,16.264-34.463,16.312   c-1.997,0.021-4.28-0.24-6.601-0.782c5.398-13.68,10.49-16.511,22.525-23.183c4.046-2.244,8.628-4.788,13.903-8.086   c10.011-6.26,16.363-13.481,20.459-20.334C150.247,227.53,144.711,241.313,133.907,252.24z" style="fill:#352517;"/><path d="M225.856,379.146h-3.514c-5.824,0-10.543,4.722-10.543,10.543s4.719,10.543,10.543,10.543h3.514   c5.824,0,10.543-4.722,10.543-10.543S231.68,379.146,225.856,379.146z" style="fill:#352517;"/><path d="M79.587,379.146h-7.512c-5.824,0-10.543,4.722-10.543,10.543s4.719,10.543,10.543,10.543h7.512   c5.824,0,10.543-4.722,10.543-10.543S85.411,379.146,79.587,379.146z" style="fill:#352517;"/><path d="M42.021,379.146h-7.512c-5.824,0-10.543,4.722-10.543,10.543s4.719,10.543,10.543,10.543h7.512   c5.824,0,10.543-4.722,10.543-10.543S47.845,379.146,42.021,379.146z" style="fill:#352517;"/><path d="M192.288,379.146h-7.512c-5.824,0-10.543,4.722-10.543,10.543s4.719,10.543,10.543,10.543h7.512   c5.824,0,10.543-4.722,10.543-10.543S198.112,379.146,192.288,379.146z" style="fill:#352517;"/><path d="M117.156,379.146h-7.516c-5.824,0-10.543,4.722-10.543,10.543s4.719,10.543,10.543,10.543h7.516   c5.824,0,10.543-4.722,10.543-10.543S122.98,379.146,117.156,379.146z" style="fill:#352517;"/><path d="M154.722,379.146h-7.512c-5.824,0-10.543,4.722-10.543,10.543s4.719,10.543,10.543,10.543h7.512   c5.824,0,10.543-4.722,10.543-10.543S160.546,379.146,154.722,379.146z" style="fill:#352517;"/><path d="M4.455,379.146H0.94c-5.824,0-10.543,4.722-10.543,10.543s4.719,10.543,10.543,10.543h3.514   c5.824,0,10.543-4.722,10.543-10.543S10.279,379.146,4.455,379.146z" style="fill:#352517;"/></g><g id="Layer_1_1_"/></svg>