<svg viewBox="0 0 512 512" xmlns="http://www.w3.org/2000/svg"><path d="m256 0c-141.160156 0-256 114.394531-256 255 0 140.875 114.957031 257 256 257 140.882812 0 256-115.957031 256-257 0-140.605469-114.839844-255-256-255zm0 30c119.554688 0 217.710938 92.90625 225.484375 210.007812-20.738281.179688-32.101563 11.167969-40.414063 19.210938-7.523437 7.28125-11.519531 10.78125-20.070312 10.78125-8.433594 0-12.039062-3.25-19.394531-10.605469-8.183594-8.183593-19.390625-19.394531-40.605469-19.394531h-1.074219c-7.304687-50.816406-51.121093-90-103.925781-90s-96.621094 39.183594-103.925781 90h-1.074219c-21.214844 0-32.421875 11.210938-40.605469 19.394531-7.355469 7.355469-10.960937 10.605469-19.394531 10.605469-8.550781 0-12.546875-3.5-20.070312-10.777344-8.3125-8.046875-19.675782-19.035156-40.414063-19.214844 7.773437-117.101562 105.929687-210.007812 225.484375-210.007812zm75 225c0 41.355469-33.644531 75-75 75s-75-33.644531-75-75 33.644531-75 75-75 75 33.644531 75 75zm-75 227c-119.59375 0-217.769531-93.792969-225.492188-211.984375 8.195313.136719 12.191407 3.632813 19.5625 10.765625 8.378907 8.109375 19.859376 19.21875 40.929688 19.21875 21.214844 0 32.421875-11.210938 40.605469-19.394531 7.355469-7.355469 10.960937-10.605469 19.394531-10.605469h1.074219c7.304687 50.816406 51.121093 90 103.925781 90s96.621094-39.183594 103.925781-90h1.074219c8.433594 0 12.039062 3.25 19.394531 10.605469 8.183594 8.183593 19.390625 19.394531 40.605469 19.394531 21.070312 0 32.550781-11.109375 40.929688-19.222656 7.371093-7.128906 11.367187-10.625 19.5625-10.765625-7.722657 118.195312-105.898438 211.988281-225.492188 211.988281zm0 0"/><path d="m420.972656 195c0 8.285156-6.71875 15-15 15-8.285156 0-15-6.714844-15-15s6.714844-15 15-15c8.28125 0 15 6.714844 15 15zm0 0"/><path d="m360.972656 120c0 8.285156-6.71875 15-15 15-8.285156 0-15-6.714844-15-15s6.714844-15 15-15c8.28125 0 15 6.714844 15 15zm0 0"/><path d="m270.972656 90c0 8.285156-6.71875 15-15 15-8.285156 0-15-6.714844-15-15s6.714844-15 15-15c8.28125 0 15 6.714844 15 15zm0 0"/><path d="m180.972656 120c0 8.285156-6.71875 15-15 15-8.285156 0-15-6.714844-15-15s6.714844-15 15-15c8.28125 0 15 6.714844 15 15zm0 0"/><path d="m120.972656 195c0 8.285156-6.71875 15-15 15-8.285156 0-15-6.714844-15-15s6.714844-15 15-15c8.28125 0 15 6.714844 15 15zm0 0"/></svg>