<svg height="682pt" viewBox="-77 -21 682 682.66669" width="682pt" xmlns="http://www.w3.org/2000/svg"><path d="m523.589844 0h-527.089844v369.414062h56.46875v28.234376l19.558594 242.351562h130.300781l19.523437-241.597656.023438-28.988282h75.300781v28.234376l19.550781 242.351562h130.308594l19.523438-241.597656.023437-28.988282h55.183594zm-433.699219 621.175781-1.523437-18.824219h98.617187l-1.519531 18.824219zm113.671875-223.910156-12.011719 148.617187h-82.109375v18.824219h80.589844l-1.523438 18.824219h-101.660156l-14.453125-178.824219h27.636719v-18.824219h-28.238281v-16.46875h131.769531zm131.027344 223.910156-1.515625-18.824219h98.617187l-1.519531 18.824219zm113.671875-223.910156-12.003907 148.617187h-82.109374v18.824219h80.585937l-1.519531 18.824219h-101.660156l-14.453126-178.824219h65.28125v-18.824219h-65.882812v-16.46875h131.761719zm-178.820313-46.679687v-65.878907h-18.824218v65.878907h-235.292969v-18.824219h9.414062v-18.824219h-9.414062v-115.289062h9.414062v-18.824219h-9.414062v-160h489.378906l-.574219 160h-8.804687v18.824219h8.738281l-.414062 115.289062h-8.324219v18.824219h8.257812l-.066406 18.824219zm0 0"/><path d="m458.777344 94.117188c0-20.757813-16.890625-37.648438-37.648438-37.648438h-311.6875c-20.757812 0-37.648437 16.890625-37.648437 37.648438 0 20.761718 16.890625 37.644531 37.648437 37.644531h311.6875c20.757813 0 37.648438-16.882813 37.648438-37.644531zm-368.160156 0c0-10.375 8.445312-18.824219 18.824218-18.824219h311.6875c10.375 0 18.824219 8.449219 18.824219 18.824219 0 10.378906-8.449219 18.820312-18.824219 18.820312h-311.6875c-10.378906 0-18.824218-8.441406-18.824218-18.820312zm0 0"/><path d="m34.148438 37.648438h18.820312v18.820312h-18.820312zm0 0"/><path d="m465.832031 37.648438h18.828125v18.820312h-18.828125zm0 0"/><path d="m43.5625 178.824219h18.820312v18.824219h-18.820312zm0 0"/><path d="m81.207031 178.824219h18.824219v18.824219h-18.824219zm0 0"/><path d="m118.855469 178.824219h18.820312v18.824219h-18.820312zm0 0"/><path d="m156.5 178.824219h18.824219v18.824219h-18.824219zm0 0"/><path d="m194.148438 178.824219h18.820312v18.824219h-18.820312zm0 0"/><path d="m231.792969 178.824219h18.824219v18.824219h-18.824219zm0 0"/><path d="m269.441406 178.824219h18.820313v18.824219h-18.820313zm0 0"/><path d="m307.085938 178.824219h18.828124v18.824219h-18.828124zm0 0"/><path d="m344.738281 178.824219h18.824219v18.824219h-18.824219zm0 0"/><path d="m382.382812 178.824219h18.824219v18.824219h-18.824219zm0 0"/><path d="m420.03125 178.824219h18.824219v18.824219h-18.824219zm0 0"/><path d="m457.675781 178.824219h18.824219v18.824219h-18.824219zm0 0"/><path d="m467.085938 284.707031h-169.410157v28.230469h-9.414062v18.824219h188.238281v-18.824219h-9.414062zm-150.585938 18.824219h131.761719v9.40625h-131.761719zm0 0"/><path d="m222.382812 284.707031h-169.414062v28.230469h-9.40625v18.824219h188.230469v-18.824219h-9.410157zm-150.589843 18.824219h131.769531v9.40625h-131.769531zm0 0"/><path d="m118.855469 385.882812h18.820312v18.824219h-18.820312zm0 0"/><path d="m401.207031 385.882812h18.824219v18.824219h-18.824219zm0 0"/></svg>